<?xml version="1.0" encoding="UTF-8"?><svg id="_イヤー_2" xmlns="http://www.w3.org/2000/svg" viewBox="0 0 41.07 26.69"><defs><style>.cls-1{fill:#3636d8;}</style></defs><g id="_イヤー_1-2"><g><path class="cls-1" d="M7.03,4.69V21.99c0,2.3-.91,3.54-1.76,4.12-.88,.58-1.73,.58-1.76,.58s-.88,0-1.76-.58c-.85-.58-1.76-1.82-1.76-4.12V13.36c0-2.3,.91-3.54,1.76-4.12,.88-.58,1.73-.58,1.76-.58v.73h-.06s-.09,0-.15,.03c-.12,.03-.3,.06-.48,.18-.33,.24-.67,.64-.67,1.58v12.99c0,.82,.27,1.21,.55,1.45,.27,.27,.64,.33,.76,.33h.12s.09,0,.15-.03c.12-.03,.3-.09,.48-.18,.33-.24,.67-.64,.67-1.57V2.51c0-.82-.27-1.21-.55-1.45-.27-.27-.64-.33-.76-.33h-.12s-.09,0-.15,.03c-.12,.03-.3,.09-.48,.21-.33,.21-.67,.61-.67,1.54,0,1.21-.48,1.94-.94,2.24-.48,.3-.91,.3-.94,.3h-.27v-.36C0,2.39,.91,1.15,1.76,.58c.88-.58,1.73-.58,1.76-.58s.88,0,1.76,.58c.85,.58,1.76,1.82,1.76,4.12Z"/><path class="cls-1" d="M13.81,8.78c-.15,.09-.27,.18-.39,.24,.12,.06,.24,.12,.39,.21,.88,.58,1.76,1.82,1.76,4.12v8.63c0,2.3-.91,3.54-1.76,4.12-.88,.58-1.73,.58-1.76,.58s-.88,0-1.76-.58c-.85-.58-1.76-1.82-1.76-4.12V0h.27c.91,0,1.42,.67,1.67,1.27,.21,.64,.21,1.21,.21,1.24V24.17c0,.82,.27,1.21,.55,1.45,.27,.27,.64,.33,.76,.33h.12s.09,0,.15-.03c.12-.03,.3-.09,.48-.18,.33-.24,.67-.64,.67-1.57V11.18c0-.85-.27-1.21-.55-1.48-.27-.24-.64-.3-.76-.3h-.06v-.73h.06s.09-.03,.15-.03c.12-.03,.3-.09,.48-.21,.33-.24,.67-.61,.67-1.57V2.51c0-.82-.27-1.21-.55-1.45-.27-.27-.64-.33-.76-.33h-.06V0s.88,0,1.76,.58c.82,.55,1.67,1.7,1.76,3.76v.36c0,2.27-.88,3.54-1.76,4.09Z"/><path class="cls-1" d="M24.08,4.69V21.99c0,2.3-.91,3.54-1.79,4.12-.88,.58-1.7,.58-1.73,.58s-.88,0-1.76-.58c-.88-.58-1.76-1.82-1.76-4.12V4.69c0-2.3,.88-3.54,1.76-4.12,.88-.58,1.73-.58,1.76-.58s.85,0,1.73,.58c.88,.58,1.79,1.82,1.79,4.12Zm-2.15-2.18c0-.82-.27-1.21-.55-1.45-.3-.27-.64-.33-.76-.33h-.12s-.09,0-.15,.03c-.12,.03-.3,.09-.49,.21-.33,.21-.67,.61-.67,1.54V24.17c0,.82,.24,1.21,.54,1.45,.27,.27,.64,.33,.76,.33h.12s.09,0,.15-.03c.12-.03,.3-.09,.48-.18,.33-.24,.67-.64,.67-1.57V2.51Z"/><path class="cls-1" d="M28.99,25.96h.06v.73s-.85,0-1.73-.58c-.88-.58-1.79-1.82-1.79-4.12V0h.27s.46,0,.94,.3c.46,.3,.94,1,.94,2.21V24.17c0,.82,.27,1.21,.54,1.45,.3,.27,.64,.33,.76,.33ZM32.56,0V26.69h-2.15V2.51c0-1.21,.48-1.91,.94-2.21,.48-.3,.91-.3,.94-.3h.27Z"/><path class="cls-1" d="M35.92,2.88c-.64,0-.91,.33-1.09,.73-.21,.36-.24,.85-.24,1.03v.06h-.54s0-1.15,.42-2.33,1.36-2.36,3.09-2.36h.27V.36s0,.61-.24,1.24c-.21,.64-.76,1.27-1.67,1.27ZM41.07,.48c-.03,.55-.18,2.79-1.63,3.94V26.69h-2.15V4.69s0-.61,.24-1.24c.21-.64,.73-1.3,1.63-1.3,.64,.03,.94-.33,1.12-.7,.18-.39,.24-.85,.24-1.03v-.06h.54v.12Z"/></g></g></svg>