<?xml version="1.0" encoding="UTF-8"?><svg id="_イヤー_2" xmlns="http://www.w3.org/2000/svg" viewBox="0 0 35.59 26.75"><defs><style>.cls-1{fill:#3636d8;}</style></defs><g id="_イヤー_1-2"><g><path class="cls-1" d="M7.03,21.69v.36c0,2.3-.91,3.54-1.76,4.12-.88,.58-1.73,.58-1.76,.58s-.88,0-1.76-.58c-.85-.58-1.76-1.82-1.76-4.12V.06H.27C1.18,.06,1.7,.73,1.94,1.33c.21,.64,.21,1.21,.21,1.24V24.23c0,.82,.27,1.21,.55,1.45,.27,.27,.64,.33,.76,.33h.12s.09,0,.15-.03c.12-.03,.3-.09,.48-.18,.33-.24,.67-.64,.67-1.57,0-1.21,.48-1.91,.94-2.21,.48-.33,.91-.33,.94-.33h.27Z"/><path class="cls-1" d="M10.09,0V26.69h-2.15V2.54c0-1.21,.48-1.91,.97-2.21,.45-.3,.91-.33,.94-.33h.24Z"/><path class="cls-1" d="M18.6,4.76V26.75h-2.15V2.57c0-.82-.27-1.21-.55-1.45-.27-.27-.64-.33-.76-.33h-.12s-.09,0-.15,.03c-.12,.03-.3,.09-.49,.21-.33,.21-.67,.61-.67,1.54V26.75h-2.15V.06h.27c.61,0,1.06,.3,1.33,.7C14.02,.12,14.84,.06,15.05,.06h.03s.88,0,1.76,.58c.88,.58,1.76,1.82,1.76,4.12Z"/><path class="cls-1" d="M25.35,13.18c-.15,.09-.27,.15-.39,.24,.12,.06,.24,.12,.39,.21,.88,.58,1.76,1.82,1.76,4.09v9.03h-2.15V15.57c0-.85-.27-1.21-.54-1.48-.27-.24-.64-.3-.76-.3-.03-.03-.06-.03-.06-.03l-.06,.03h-.15c-.12,.03-.3,.09-.49,.21-.33,.24-.67,.61-.67,1.57v11.18h-2.15V.06h.27c.91,0,1.42,.67,1.67,1.27,.21,.64,.21,1.21,.21,1.24V13.39c.73-.33,1.33-.33,1.36-.33h.06s.09-.03,.15-.03c.12-.03,.3-.09,.48-.21,.33-.24,.67-.61,.67-1.58V.06h.27c.91,0,1.42,.67,1.67,1.27,.21,.64,.21,1.21,.21,1.24v6.51c0,2.27-.88,3.51-1.76,4.09Z"/><path class="cls-1" d="M30.71,2.57V11.24c0,.85,.24,1.21,.54,1.48,.27,.24,.64,.3,.76,.33h.06s.85,0,1.73,.58c.88,.58,1.79,1.82,1.79,4.09v4.33c0,2.3-.91,3.54-1.79,4.12s-1.7,.58-1.73,.58c-.03,0-.88,0-1.76-.58-.88-.58-1.76-1.82-1.76-4.12v-.36h.27s.45,0,.94,.33c.45,.3,.94,1,.94,2.21,0,.82,.24,1.21,.54,1.45,.27,.27,.64,.33,.76,.33h.12s.09,0,.15-.03c.12-.03,.3-.09,.48-.18,.33-.24,.67-.64,.67-1.57V15.57c0-.85-.27-1.21-.54-1.48-.3-.24-.64-.3-.76-.3-.03-.03-.06-.03-.06-.03-.03,0-.88,0-1.76-.58-.88-.58-1.76-1.82-1.76-4.09V4.76c0-2.3,.88-3.54,1.76-4.12,.88-.58,1.73-.58,1.76-.58,.03,0,.85,0,1.73,.58s1.79,1.82,1.79,4.12v.36h-.27s-.45,0-.94-.3c-.46-.33-.97-1.03-.94-2.24,0-.82-.27-1.21-.54-1.45-.3-.27-.64-.33-.76-.33h-.12s-.09,0-.15,.03c-.12,.03-.3,.09-.49,.21-.33,.21-.67,.61-.67,1.54Z"/></g></g></svg>