<?xml version="1.0" encoding="UTF-8"?><svg id="_イヤー_2" xmlns="http://www.w3.org/2000/svg" viewBox="0 0 43.86 26.75"><defs><style>.cls-1{fill:#3636d8;}</style></defs><g id="_イヤー_1-2"><g><path class="cls-1" d="M7.03,21.69v.36c0,2.3-.91,3.54-1.76,4.12-.88,.58-1.73,.58-1.76,.58s-.88,0-1.76-.58c-.85-.58-1.76-1.82-1.76-4.12V.06H.27C1.18,.06,1.7,.73,1.94,1.33c.21,.64,.21,1.21,.21,1.24V24.23c0,.82,.27,1.21,.55,1.45,.27,.27,.64,.33,.76,.33h.12s.09,0,.15-.03c.12-.03,.3-.09,.48-.18,.33-.24,.67-.64,.67-1.57,0-1.21,.48-1.91,.94-2.21,.48-.33,.91-.33,.94-.33h.27Z"/><path class="cls-1" d="M14.96,.06V22.05c0,2.3-.91,3.54-1.79,4.12-.88,.58-1.7,.58-1.73,.58s-.88,0-1.76-.58-1.76-1.82-1.76-4.12v-.36h.27s.45,0,.94,.33c.45,.3,.94,1,.94,2.21,0,.82,.24,1.21,.55,1.45,.27,.27,.64,.33,.76,.33h.12s.09,0,.15-.03c.12-.03,.3-.09,.48-.18,.33-.24,.67-.64,.67-1.57V2.57c0-1.21,.48-1.91,.94-2.21,.49-.3,.91-.3,.94-.3h.27ZM7.94,13.42V.06h.27s.45,0,.94,.3c.45,.3,.94,1,.94,2.21V15.57c0,.85,.24,1.21,.55,1.48,.27,.24,.64,.3,.76,.3h.06v.73s-.88,0-1.76-.58-1.76-1.82-1.76-4.09Z"/><path class="cls-1" d="M18.6,2.54V26.69h-2.15V0h.27s.45,.03,.94,.33c.45,.3,.94,1,.94,2.21Zm3.12,14.93c-.15,.06-.27,.15-.39,.21,.12,.06,.24,.12,.39,.21,.88,.58,1.76,1.82,1.76,4.12v4.66h-2.15v-6.85c0-.82-.27-1.21-.54-1.45-.27-.27-.64-.33-.76-.33h-.06v-.73h.06s.09-.03,.15-.03c.12-.03,.3-.09,.48-.21,.33-.24,.67-.61,.67-1.58V2.54c0-.85-.27-1.24-.54-1.48-.27-.24-.64-.3-.76-.33h-.06V0s.88,.03,1.76,.61c.88,.58,1.76,1.82,1.76,4.09V13.36c0,2.3-.88,3.54-1.76,4.12Z"/><path class="cls-1" d="M27.05,0V26.69h-2.15V2.54c0-1.21,.48-1.91,.97-2.21,.46-.3,.91-.33,.94-.33h.24Z"/><path class="cls-1" d="M30.68,2.57V24.23c0,.82,.24,1.21,.54,1.45,.27,.27,.64,.33,.76,.33h.12s.09,0,.15-.03c.12-.03,.3-.09,.48-.18,.33-.24,.67-.64,.67-1.57,0-1.21,.48-1.91,.94-2.21,.48-.33,.91-.33,.94-.33h.27v.36c0,2.3-.91,3.54-1.79,4.12-.88,.58-1.7,.58-1.73,.58-.03,0-.88,0-1.76-.58s-1.76-1.82-1.76-4.12V4.76c0-2.3,.88-3.54,1.76-4.12s1.73-.58,1.76-.58c.03,0,.85,0,1.73,.58,.88,.58,1.79,1.82,1.79,4.12v.36h-.27s-.46,0-.94-.3c-.45-.3-.97-1.03-.94-2.24,0-.82-.27-1.21-.55-1.45-.3-.27-.63-.33-.76-.33h-.12s-.09,0-.15,.03c-.12,.03-.3,.09-.48,.21-.33,.21-.67,.61-.67,1.54Z"/><path class="cls-1" d="M38.98,2.57V11.24c0,.85,.24,1.21,.54,1.48,.27,.24,.64,.3,.76,.33h.06s.85,0,1.73,.58c.88,.58,1.79,1.82,1.79,4.09v4.33c0,2.3-.91,3.54-1.79,4.12-.88,.58-1.7,.58-1.73,.58-.03,0-.88,0-1.76-.58s-1.76-1.82-1.76-4.12v-.36h.27s.46,0,.94,.33c.46,.3,.94,1,.94,2.21,0,.82,.24,1.21,.54,1.45,.27,.27,.64,.33,.76,.33h.12s.09,0,.15-.03c.12-.03,.3-.09,.48-.18,.33-.24,.67-.64,.67-1.57V15.57c0-.85-.27-1.21-.55-1.48-.3-.24-.63-.3-.76-.3-.03-.03-.06-.03-.06-.03-.03,0-.88,0-1.76-.58-.88-.58-1.76-1.82-1.76-4.09V4.76c0-2.3,.88-3.54,1.76-4.12s1.73-.58,1.76-.58c.03,0,.85,0,1.73,.58,.88,.58,1.79,1.82,1.79,4.12v.36h-.27s-.46,0-.94-.3c-.45-.33-.97-1.03-.94-2.24,0-.82-.27-1.21-.55-1.45-.3-.27-.63-.33-.76-.33h-.12s-.09,0-.15,.03c-.12,.03-.3,.09-.48,.21-.33,.21-.67,.61-.67,1.54Z"/></g></g></svg>